Coordinates
version=1
nRows=13
nColumns=36
inDegrees=yes

Units are S.I. units (second, meters, Newtons, ...)
If the header above contains a line with 'inDegrees', this indicates whether rotational values are in degrees (yes) or radians (no).

endheader
time	pelvis_tilt	pelvis_list	pelvis_rotation	pelvis_tx	pelvis_ty	pelvis_tz	hip_flexion_r	hip_adduction_r	hip_rotation_r	knee_angle_r	knee_angle_r_beta	ankle_angle_r	subtalar_angle_r	mtp_angle_r	hip_flexion_l	hip_adduction_l	hip_rotation_l	knee_angle_l	knee_angle_l_beta	ankle_angle_l	subtalar_angle_l	mtp_angle_l	lumbar_extension	lumbar_bending	lumbar_rotation	arm_flex_r	arm_add_r	arm_rot_r	elbow_flex_r	pro_sup_r	arm_flex_l	arm_add_l	arm_rot_l	elbow_flex_l	pro_sup_l
      2.18333330	    -19.19325634	      1.96353354	     -3.39595287	      0.35050595	      1.25324428	     -0.04498218	      5.60342400	     -3.16441464	     13.32632041	     26.26754094	      0.45845508	     -7.13173698	    -15.38041916	     -7.49999987	      8.87711733	     -0.31848720	      4.58550538	     31.03505026	      0.54166381	      7.36866350	     -1.68271691	     -7.49999987	     -4.00403739	     -3.37087862	      2.31500586	     27.59943606	    -25.36263423	      6.01124373	    104.50561691	     93.78465544	     36.37641699	    -15.68892143	     13.90757081	     87.05649974	    104.97867341
      2.20000000	    -19.78393350	      1.31723603	     -3.66828609	      0.36173967	      1.25530425	     -0.04138224	      9.67674586	     -2.00780449	     13.48270632	     31.19290911	      0.54441897	     -9.49996365	    -14.88854407	     -7.49999987	     10.94186604	     -2.23423707	      4.18801207	     31.57405075	      0.55107114	      6.17982384	     -0.68920857	     -7.49999987	     -3.66519008	     -2.27350887	      0.03845366	     28.40309781	    -23.88173218	      8.28840261	    101.58636297	     92.76365852	     33.53438269	    -18.52632061	      9.75343110	     88.41626918	    104.41147103
      2.21666670	    -19.51136716	      1.06074763	     -4.03894090	      0.38703252	      1.26572661	     -0.04093759	     12.35269538	     -1.59529614	     13.34543425	     33.04751968	      0.57678803	     -9.88789026	    -13.83477451	     -7.49999987	     12.54432919	     -3.67207348	      3.19499721	     31.58153901	      0.55120184	      3.20669820	     -1.07861999	     -7.49999987	     -4.65873621	     -2.02945788	     -0.18985817	     27.73186655	    -23.50013886	      7.89530822	     98.03192946	     91.53366637	     33.28329487	    -19.08582165	      7.49503917	     84.71543698	    102.72491546
      2.23333330	    -18.55972919	      1.48557079	     -4.25370202	      0.41565720	      1.27163994	     -0.04838948	     13.29055004	     -2.86892879	     12.34240939	     31.65516947	      0.55248693	     -9.82817020	    -11.13129354	     -7.49999987	     13.50247887	     -3.76738821	      1.68680260	     30.24275334	      0.52783562	     -0.59692897	     -2.14799723	     -7.49999987	     -6.32672503	     -2.17218986	      0.03379846	     24.97730193	    -24.10577352	      9.21756374	     95.23846758	     90.88785786	     29.51748162	    -18.76632617	      4.94562347	     81.30889691	    101.85630486
      2.25000000	    -18.15063749	      1.75737610	     -5.35921910	      0.42417025	      1.26553971	     -0.04944304	     18.49288147	     -3.54608184	     11.11253143	     36.68688122	      0.64030687	     -8.50186464	    -10.81697765	     -7.49999987	     15.99623349	     -4.28793435	     -0.25481155	     30.28696305	      0.52860723	     -3.60329528	     -3.31397155	     -7.49999987	     -8.68445010	     -2.01958011	      0.99847737	     24.51001491	    -24.77394158	      8.16056562	     90.23385298	     89.21714404	     25.54910347	    -18.36510042	      2.38493956	     79.07789194	     99.34868519
      2.26666670	    -17.52622748	      1.86860563	     -5.34488625	      0.44202530	      1.26215198	     -0.04875551	     21.18452285	     -4.32689494	      9.87662127	     36.16233765	      0.63115186	     -7.27742382	     -8.35547488	     -7.49999987	     18.45522074	     -5.09539451	     -1.95366314	     31.08415307	      0.54252082	     -7.86775607	     -5.08621444	     -7.49999987	    -11.14562213	     -1.46605228	     -1.00638345	     28.11614365	    -23.50424678	     10.05849087	     81.60528442	     91.23103798	     23.15595453	    -18.90521361	     -2.35483783	     76.53736401	    100.84242979
      2.28333330	    -17.09702742	      1.98834585	     -5.06779328	      0.45691579	      1.24789974	     -0.04062283	     23.55845544	     -5.09720245	      8.40559337	     34.60013820	      0.60388633	     -5.68061985	     -6.38065013	     -7.49999987	     20.47226648	     -6.00502305	     -3.54100649	     30.28592605	      0.52858913	    -10.72941099	     -6.14453855	     -7.49999987	    -13.67871751	     -1.47168563	     -0.13550606	     29.58709355	    -24.29309926	     10.03863683	     73.62665727	     91.10731812	     23.32700638	    -18.90165080	     -2.36144089	     71.82541272	    100.41728004
      2.30000000	    -17.01287506	      1.86037552	     -4.76315686	      0.48176394	      1.24006770	     -0.03690350	     25.84947388	     -5.43506994	      6.89573548	     32.49516369	      0.56714760	     -5.30740930	     -4.87528359	     -7.49999987	     21.90292470	     -6.93901398	     -5.27237144	     27.84775350	      0.48603499	    -13.56387967	     -7.06197592	     -7.49999987	    -15.08909681	     -1.60608787	     -0.71099157	     26.45321394	    -23.84028788	      9.10222974	     70.56821987	     90.67667131	     20.26201739	    -19.00046802	     -4.78378165	     67.30206630	     99.86608332
      2.31666670	    -16.37400982	      1.52150060	     -4.84213663	      0.51326410	      1.23470309	     -0.03398190	     26.23474176	     -5.73110117	      5.20263425	     28.56635047	      0.49857687	     -6.26479310	     -2.47015249	     -7.49999987	     22.45117889	     -7.73028679	     -6.62240351	     24.16531890	      0.42176438	    -13.94357029	     -6.33989870	     -7.49999987	    -16.76930373	     -1.63053367	     -0.90162669	     22.73812792	    -23.07128941	      7.72310931	     67.16178524	     90.24870564	     16.82643219	    -18.66171180	     -7.00251924	     62.82170966	     99.55899142
      2.33333330	    -15.85872773	      1.51935900	     -4.72643220	      0.53130758	      1.21695176	     -0.03975795	     26.95060278	     -6.30778476	      4.29521410	     24.85217742	      0.43375232	     -7.76542617	     -1.52644561	     -7.49999987	     23.29265348	     -7.94021379	     -7.69826306	     21.80299354	      0.38053402	    -14.02688260	     -5.53218050	     -7.49999987	    -18.01612475	     -1.82484691	     -1.44965555	     18.81346001	    -22.37506616	      5.91457689	     62.59717892	     89.56872717	     13.70178292	    -18.12160529	     -9.48500064	     57.18605381	     99.23057602
      2.35000000	    -15.21128530	      1.16675664	     -4.39172223	      0.55420588	      1.19664950	     -0.04044218	     27.13218879	     -6.51694659	      3.22683155	     21.16426829	      0.36938617	     -9.31799299	     -0.53203071	     -7.49999987	     24.04356638	     -8.38246095	     -7.42104730	     19.39487164	      0.33850437	    -15.38249398	     -5.18149009	     -7.49999987	    -19.48649330	     -1.50032303	     -1.98354596	     16.18604249	    -21.88430286	      4.18531239	     58.40124934	     89.21524780	     11.40300973	    -17.77340786	    -10.79396235	     51.95836170	     99.23397300
      2.36666670	    -15.84349983	      1.39988902	     -4.01729248	      0.55832243	      1.18534425	     -0.04109590	     30.25690463	     -7.11804324	      2.33168520	     19.27552073	      0.33642130	    -11.01305200	      0.12065051	     -7.49999987	     26.37848812	     -8.27549289	     -7.13356058	     17.45623801	      0.30466883	    -17.02677044	     -4.49051050	     -7.49999987	    -21.09581484	     -1.75200676	     -1.63459322	     13.64006938	    -21.92072304	      1.93124641	     54.65634507	     83.85192818	     10.78313283	    -18.27130051	     -8.62448694	     46.35425335	     95.12028627
      2.38333330	    -16.54489568	      1.03076962	     -3.08127881	      0.56959389	      1.14632961	     -0.04275250	     33.89570914	     -7.62986089	      0.81443512	     18.70455485	      0.32645607	    -12.07731812	      0.49543214	     -7.49999987	     30.60706218	     -8.57575925	     -5.61383246	     18.47270756	      0.32240957	    -16.63309467	     -4.37514041	     -7.49999987	    -22.73577648	     -1.22920299	     -2.06755055	     11.60697306	    -22.46924527	      1.15600855	     51.85529124	     83.16731516	      8.12625053	    -18.29255705	     -8.95220348	     43.76820476	     94.31782321
